<?xml version="1.0" encoding="UTF-8"?>
<svg width="19px" height="18px" viewBox="0 0 19 18" version="1.1" xmlns="http://www.w3.org/2000/svg" xmlns:xlink="http://www.w3.org/1999/xlink">
    <title>Group 13</title>
    <g id="Symbols" stroke="none" stroke-width="1" fill="none" fill-rule="evenodd">
        <g id="Footer" transform="translate(-1742.000000, -80.000000)" stroke="#E20714">
            <g id="Group-13" transform="translate(1743.000000, 81.000000)">
                <path d="M9.19558333,4.86956522 L5.67658333,4.86956522 L5.67658333,16 L9.19629167,16 L9.19629167,10.1572174 C9.19629167,6.90852174 13.4668333,6.64278261 13.4668333,10.1572174 L13.4668333,16 L17,16 L17,8.95234783 C17,3.4706087 10.68025,3.67026087 9.19558333,6.36869565 L9.19558333,4.86956522 Z" id="Path"></path>
                <polygon id="Path" points="0 16 3.54166667 16 3.54166667 4.86956522 0 4.86956522"></polygon>
                <path d="M3.5275,1.73913043 C3.5275,2.69982609 2.74125,3.47826087 1.77083333,3.47826087 C0.800416667,3.47826087 0.0141666667,2.69982609 0.0141666667,1.73913043 C0.0141666667,0.779130435 0.800416667,0 1.77083333,0 C2.74125,0 3.5275,0.779130435 3.5275,1.73913043 L3.5275,1.73913043 Z" id="Path"></path>
            </g>
        </g>
    </g>
</svg>