<?xml version="1.0" encoding="UTF-8"?>
<svg width="20px" height="20px" viewBox="0 0 20 20" version="1.1" xmlns="http://www.w3.org/2000/svg" xmlns:xlink="http://www.w3.org/1999/xlink">
    <title>Group 12</title>
    <g id="Symbols" stroke="none" stroke-width="1" fill="none" fill-rule="evenodd">
        <g id="Footer" transform="translate(-1651.000000, -79.000000)">
            <g id="Group-12" transform="translate(1652.000000, 80.000000)">
                <path d="M9,0 C6.55575,0 6.24975,0.0105 5.28975,0.054 C2.02125,0.204 0.20475,2.0175 0.05475,5.289 C0.0105,6.24975 0,6.55575 0,9 C0,11.44425 0.0105,11.751 0.054,12.711 C0.204,15.9795 2.0175,17.796 5.289,17.946 C6.24975,17.9895 6.55575,18 9,18 C11.44425,18 11.751,17.9895 12.711,17.946 C15.9765,17.796 17.7975,15.9825 17.94525,12.711 C17.9895,11.751 18,11.44425 18,9 C18,6.55575 17.9895,6.24975 17.946,5.28975 C17.799,2.02425 15.98325,0.20475 12.71175,0.05475 C11.751,0.0105 11.44425,0 9,0" id="Fill-1" stroke="#E20714"></path>
                <path d="M13.804725,3.1161 C13.207725,3.1161 12.723975,3.59985 12.723975,4.1961 C12.723975,4.79235 13.207725,5.2761 13.804725,5.2761 C14.400975,5.2761 14.883225,4.79235 14.883225,4.1961 C14.883225,3.59985 14.400975,3.1161 13.804725,3.1161" id="Fill-8" fill="#E20714"></path>
                <path d="M9,13 C6.791,13 5,11.21 5,9 C5,6.791 6.791,5 9,5 C11.209,5 13,6.791 13,9 C13,11.21 11.209,13 9,13" id="Fill-6" stroke="#E20714"></path>
            </g>
        </g>
    </g>
</svg>